<?xml version="1.0" standalone="no"?>
<!DOCTYPE svg PUBLIC "-//W3C//DTD SVG 20010904//EN"
 "http://www.w3.org/TR/2001/REC-SVG-20010904/DTD/svg10.dtd">
<svg version="1.0" xmlns="http://www.w3.org/2000/svg"
 width="512.000000pt" height="512.000000pt" viewBox="0 0 512.000000 512.000000"
 preserveAspectRatio="xMidYMid meet">
<metadata>
Created by potrace 1.11, written by Peter Selinger 2001-2013
</metadata>
<g transform="translate(0.000000,512.000000) scale(0.100000,-0.100000)"
fill="#000000" stroke="none">
<path d="M3595 4421 c-4 -7 -12 -10 -18 -8 -14 5 -65 -19 -86 -41 -10 -10 -15
-31 -14 -61 1 -25 3 -66 4 -91 6 -142 -36 -244 -135 -330 l-50 -42 -79 7 c-44
3 -88 8 -98 10 -18 4 -133 13 -264 21 -27 1 -71 3 -96 3 -43 1 -48 4 -62 34
-37 75 -141 180 -222 222 -32 17 -61 30 -64 31 -3 0 -13 4 -21 7 -83 36 -271
43 -360 14 -76 -24 -134 -49 -152 -65 -10 -8 -18 -12 -18 -9 0 13 -103 -82
-136 -125 l-21 -27 -46 62 c-48 65 -144 167 -158 167 -4 0 -15 7 -23 16 -9 9
-22 17 -29 18 -6 2 -25 8 -40 15 -89 36 -208 -15 -277 -119 -8 -12 -21 -28
-27 -36 -7 -7 -13 -19 -13 -26 0 -8 -7 -23 -15 -34 -8 -10 -15 -27 -15 -36 0
-10 -5 -18 -11 -18 -5 0 -8 -4 -5 -9 3 -5 -1 -28 -9 -51 -8 -23 -14 -44 -13
-48 1 -4 -2 -27 -6 -52 -3 -25 -8 -67 -11 -93 -2 -26 -7 -52 -10 -57 -3 -5 0
-12 6 -15 14 -9 -41 -47 -59 -40 -6 2 -12 0 -12 -5 0 -6 -6 -10 -12 -10 -7 0
-43 -15 -80 -34 l-67 -34 -28 32 c-36 40 -66 86 -56 86 5 0 0 5 -10 11 -9 6
-15 14 -12 20 4 5 1 9 -5 9 -6 0 -8 5 -5 10 3 6 1 10 -4 10 -6 0 -10 3 -9 8 4
14 -21 72 -35 77 -35 14 -135 -58 -195 -140 -20 -27 -39 -52 -42 -55 -8 -8
-82 -158 -82 -167 0 -4 -7 -17 -14 -28 -8 -11 -14 -27 -14 -37 0 -10 -5 -18
-11 -18 -6 0 -9 -7 -5 -15 3 -8 2 -15 -3 -15 -4 0 -8 -6 -9 -12 -1 -15 -10
-52 -12 -55 -2 -2 -4 -7 -5 -13 -1 -5 -4 -12 -5 -15 -1 -3 -3 -13 -4 -22 -1
-10 -4 -23 -8 -28 -4 -6 -5 -23 -4 -38 2 -15 0 -27 -3 -27 -4 0 -8 -42 -9 -92
-3 -118 -4 -128 -15 -128 -5 0 -7 -7 -4 -15 4 -8 3 -17 -2 -19 -10 -7 -14 -57
-13 -191 0 -98 7 -240 12 -240 2 0 5 -29 11 -97 2 -21 6 -38 9 -38 3 0 6 -23
8 -52 1 -29 6 -54 10 -57 4 -4 8 -22 10 -41 2 -19 5 -44 8 -55 2 -11 7 -33 10
-50 4 -16 12 -36 18 -44 9 -12 8 -13 -4 -6 -12 7 -13 6 -4 -6 10 -13 32 -84
38 -121 1 -10 5 -21 9 -24 4 -4 7 -17 7 -29 0 -11 4 -25 8 -31 5 -5 15 -29 22
-54 47 -153 234 -542 275 -572 7 -5 7 -8 0 -8 -7 0 -7 -3 0 -8 14 -10 65 -79
65 -88 0 -4 10 -15 22 -25 11 -11 18 -19 14 -19 -30 0 329 -371 377 -389 5 -2
17 -11 27 -20 26 -25 60 -51 65 -51 3 0 34 -20 70 -45 36 -24 122 -72 193
-106 141 -69 141 -69 232 -100 36 -13 67 -25 70 -28 3 -3 16 -7 30 -9 14 -1
32 -5 40 -9 17 -7 27 -10 55 -17 82 -19 105 -23 105 -19 0 3 6 1 13 -4 6 -6
20 -9 30 -8 9 2 17 0 17 -3 0 -4 10 -8 23 -8 12 -1 42 -5 67 -8 155 -22 218
-26 418 -30 100 -2 182 -1 182 3 0 3 24 6 53 5 28 0 55 4 59 10 6 8 8 8 8 0 0
-7 12 -9 28 -7 15 2 41 6 57 7 49 6 154 26 245 48 47 11 90 21 95 22 6 1 16 5
23 9 6 5 12 6 12 2 0 -3 9 -1 21 5 11 6 28 13 37 15 58 11 362 149 370 167 2
4 8 8 14 8 15 0 145 86 238 159 85 66 298 273 335 326 11 16 30 40 43 54 13
14 53 70 90 126 37 55 69 102 72 105 33 33 219 421 261 545 8 22 18 43 22 46
5 3 7 8 6 10 -6 6 34 139 41 139 4 0 6 10 5 22 -1 13 2 29 8 35 5 7 6 13 2 13
-4 0 -3 6 3 13 6 6 11 15 11 20 1 4 1 8 2 10 0 1 2 9 4 17 1 8 10 42 18 74 9
33 14 63 11 68 -3 4 0 8 6 8 6 0 10 8 9 18 -2 9 1 33 6 52 4 19 9 44 11 55 2
11 6 36 10 55 4 19 7 45 8 58 0 12 2 22 6 22 7 0 12 81 12 195 0 119 -3 156
-14 178 -5 9 -5 17 0 17 5 0 8 14 7 30 -1 17 2 33 6 35 4 3 6 16 4 30 -1 14 1
25 4 25 3 0 6 30 6 66 0 36 3 68 7 70 3 2 5 16 3 32 -3 15 -6 72 -9 127 -5 86
-9 124 -16 145 -1 3 -2 20 -2 38 0 17 -4 32 -7 32 -4 0 -8 10 -9 23 -2 25 -10
72 -12 72 -1 0 -3 6 -13 45 -15 59 -21 77 -30 88 -5 6 -7 12 -4 12 8 0 -33 96
-62 148 -14 23 -28 42 -32 42 -4 0 -14 7 -22 15 -22 21 -84 26 -126 9 -26 -10
-47 -31 -76 -77 -22 -34 -42 -65 -43 -70 -8 -16 -61 -64 -67 -59 -3 3 -5 1 -5
-5 0 -15 -70 -44 -110 -45 -86 -3 -95 0 -108 35 -7 18 -12 39 -12 46 0 18 -81
185 -91 189 -5 2 -9 8 -9 14 0 21 -130 171 -211 243 -64 58 -156 124 -163 118
-3 -4 -6 -1 -6 5 0 7 -7 12 -15 12 -8 0 -15 4 -15 8 0 8 -69 34 -95 36 -5 1
-13 5 -16 10 -4 4 -10 3 -14 -3z"/>
</g>
</svg>
